<svg width="29" height="33" viewBox="0 0 29 33" fill="none" xmlns="http://www.w3.org/2000/svg">
<g id="fa6-brands:square-behance">
<path id="Vector" d="M12.0725 18.8848C12.0725 20.1287 11.1663 20.5219 10.0529 20.5219H7.13348V17.1123H10.1112C11.3152 17.1188 12.0725 17.615 12.0725 18.8848ZM11.5741 13.5803C11.5741 12.4395 10.6873 12.1688 9.70335 12.1688H7.13996V15.0563H9.90402C10.8815 15.0563 11.5741 14.6309 11.5741 13.5803ZM20.1382 15.0756C18.9536 15.0756 18.1638 15.8104 18.0862 16.9898H22.1125C22.0025 15.7975 21.381 15.0756 20.1382 15.0756ZM29 5.15625V27.8438C29 29.5518 27.6083 30.9375 25.8929 30.9375H3.10714C1.39174 30.9375 0 29.5518 0 27.8438V5.15625C0 3.44824 1.39174 2.0625 3.10714 2.0625H25.8929C27.6083 2.0625 29 3.44824 29 5.15625ZM17.5877 11.9238H22.6239V10.7057H17.5877V11.9238ZM14.8042 19.033C14.8042 17.4797 14.0663 16.1391 12.5386 15.7072C13.652 15.1787 14.2346 14.5664 14.2346 13.3225C14.2346 10.8604 12.3897 10.2609 10.26 10.2609H4.40179V22.6359H10.4283C12.6875 22.623 14.8042 21.5467 14.8042 19.033ZM24.5982 18.0791C24.5982 15.4301 23.0382 13.2193 20.2223 13.2193C17.4777 13.2193 15.6199 15.2689 15.6199 17.9631C15.6199 20.7539 17.3871 22.6682 20.2223 22.6682C22.3714 22.6682 23.7632 21.7078 24.4364 19.6518H22.2549C22.0154 20.4187 21.0509 20.8184 20.3 20.8184C18.85 20.8184 18.0926 19.974 18.0926 18.5432H24.5788C24.5853 18.3949 24.5982 18.2338 24.5982 18.0791Z" fill="white"/>
</g>
</svg>
