<svg width="46" height="26" viewBox="0 0 46 26" fill="none" xmlns="http://www.w3.org/2000/svg">
<g id="BM">
<path d="M0 0.539999L0.0360001 0H7.74C12.924 0 15.516 2.028 15.516 6.084C15.516 7.644 14.484 9.348 12.42 11.196C15.468 11.94 16.992 14.124 16.992 17.748C16.992 20.58 16.272 22.536 14.832 23.616C13.416 24.672 11.232 25.2 8.28 25.2H7.236L0 25.236L0.0360001 24.732L1.908 24.48C2.148 24.456 2.292 24.3 2.34 24.012V1.26C2.292 0.948001 2.148 0.780001 1.908 0.756001L0 0.539999ZM9 11.412H4.788V24.66H8.1C12.396 24.66 14.544 22.404 14.544 17.892C14.544 15.588 14.076 13.932 13.14 12.924C12.228 11.916 10.848 11.412 9 11.412ZM9.18 10.872C10.068 10.872 10.836 10.92 11.484 11.016C12.54 9.36 13.068 7.788 13.068 6.3C13.068 2.46 11.232 0.539999 7.56 0.539999H4.788V10.872H9.18Z" fill="white"/>
<path d="M19.0094 0.539999L19.0454 0H23.7974L32.4014 18.252L40.8614 0H45.6134C45.6134 0.0480008 45.6254 0.132001 45.6494 0.252001C45.6734 0.372001 45.6734 0.468 45.6494 0.539999L43.7414 0.756001C43.5014 0.780001 43.3574 0.936001 43.3094 1.224V24.516L45.9734 24.66C45.9734 24.684 45.9614 24.864 45.9374 25.2L38.7014 25.236L38.7374 24.732L40.6094 24.48C40.8494 24.456 40.9934 24.312 41.0414 24.048V1.296L32.8334 19.044L32.1134 20.484H31.2854L22.1774 1.26V24.444L26.2814 24.66C26.2814 24.684 26.2694 24.864 26.2454 25.2L19.0094 25.236L19.0454 24.732L20.9174 24.48C21.1574 24.456 21.3014 24.3 21.3494 24.012V1.224C21.3014 0.936001 21.1574 0.780001 20.9174 0.756001L19.0094 0.539999Z" fill="white"/>
</g>
</svg>
