<svg width="31" height="31" viewBox="0 0 31 31" fill="none" xmlns="http://www.w3.org/2000/svg">
<g id="Group">
<path id="Vector" d="M30 15.5C30.0024 17.4099 29.6264 19.3013 28.8936 21.065C28.1607 22.8287 27.0857 24.4297 25.7305 25.7754C24.3864 27.1172 22.791 28.1809 21.0356 28.9057C19.2802 29.6306 17.3992 30.0024 15.5 30C7.49166 30 1.00001 23.5083 1.00001 15.5C0.994943 11.782 2.42309 8.20517 4.98751 5.51313C6.34061 4.08532 7.97082 2.94862 9.7784 2.17261C11.586 1.3966 13.5329 0.997596 15.5 1.00001C17.3992 0.997553 19.2802 1.36939 21.0356 2.09426C22.791 2.81914 24.3864 3.88284 25.7305 5.22458C27.0857 6.57035 28.1607 8.17133 28.8936 9.93501C29.6264 11.6987 30.0024 13.5901 30 15.5Z" stroke="white" stroke-width="2" stroke-linecap="round" stroke-linejoin="round"/>
<path id="Vector_2" d="M30 15.5C27.8844 15.5 22.0482 14.7025 16.8246 16.9957C11.15 19.4875 7.04142 23.3525 5.25067 25.7566" stroke="white" stroke-width="2" stroke-linecap="round" stroke-linejoin="round"/>
<path id="Vector_3" d="M10.0625 2.05417C12.3317 4.14869 17.2835 9.48106 19.125 14.775C20.9665 20.069 21.648 26.578 22.0685 28.4304" stroke="white" stroke-width="2" stroke-linecap="round" stroke-linejoin="round"/>
<path id="Vector_4" d="M1.11169 13.6875C3.85074 13.8528 11.1015 14.0014 15.7415 12.02C20.3815 10.0386 24.374 6.39401 25.7435 5.23764M2.08754 21.0194C3.36522 24.1122 5.66955 26.6703 8.61254 28.2629" stroke="white" stroke-width="2" stroke-linecap="round" stroke-linejoin="round"/>
</g>
</svg>
